# xmcd CD database file
#
# Track frame offsets:
#	150
#	11940
#	28610
#	44625
#	61305
#	78157
#	91875
#	111160
#	137035
#	152110
#	164642
#	181617
#	200967
#	217540
#	235742
#
# Disc length: 3450 seconds
#
# Revision: 1
# Processed by: cddbd v1.5.2PL0 Copyright (c) Steve Scherf et al.
# Submitted via: CDex 1.70beta2
#
DISCID=c60d780f
DTITLE=Various Artist - The Winners 5 [CD2]
DYEAR=1997
DGENRE=Country
TTITLE0=Troy Cassar-Daley - Good woman's love
TTITLE1=Gina Jeffreys - The bridge
TTITLE2=Wayne Law - Small town dreamer
TTITLE3=Jane Saunders and Rod McCormack - I am a child
TTITLE4=Mark O'Shea - World weary heart
TTITLE5=The Crosby Sisters - Train of desperation
TTITLE6=Michael Shadlow - Can I see you again
TTITLE7=Rod McCormack and Mick Albeck - The three ways
TTITLE8=John Williamson - You come back to Tassie
TTITLE9=Greg Gardner - Hen house shuffle
TTITLE10=Hot Diggety - Hearts were gone
TTITLE11=Brian Letton - The return
TTITLE12=Beccy Cole - Big girls
TTITLE13=Stan Coster - Take me back to Nockatunga
TTITLE14=Col Elliott - What have you done for Australia
EXTD=YEAR: 1997
EXTT0=
EXTT1=
EXTT2=
EXTT3=
EXTT4=
EXTT5=
EXTT6=
EXTT7=
EXTT8=
EXTT9=
EXTT10=
EXTT11=
EXTT12=
EXTT13=
EXTT14=
PLAYORDER=
